<svg width="21" height="20" viewBox="0 0 21 20" fill="none" xmlns="http://www.w3.org/2000/svg">
<path d="M19.3 10.2083C19.3 9.55825 19.2417 8.93325 19.1333 8.33325H10.5V11.8791H15.4333C15.2208 13.0249 14.575 13.9958 13.6042 14.6458V16.9458H16.5667C18.3 15.3499 19.3 12.9999 19.3 10.2083Z" fill="#4285F4"/>
<path d="M10.5 19.1667C12.975 19.1667 15.05 18.3459 16.5667 16.9459L13.6042 14.6459C12.7833 15.1959 11.7333 15.5209 10.5 15.5209C8.11252 15.5209 6.09168 13.9084 5.37085 11.7417H2.30835V14.1167C3.81668 17.1125 6.91668 19.1667 10.5 19.1667Z" fill="#34A853"/>
<path d="M5.37081 11.7416C5.18748 11.1916 5.08331 10.6041 5.08331 9.99997C5.08331 9.3958 5.18748 8.8083 5.37081 8.2583V5.8833H2.30831C1.66665 7.16068 1.33275 8.57048 1.33331 9.99997C1.33331 11.4791 1.68748 12.8791 2.30831 14.1166L5.37081 11.7416Z" fill="#FBBC05"/>
<path d="M10.5 4.47909C11.8458 4.47909 13.0542 4.94159 14.0042 5.84992L16.6333 3.22075C15.0458 1.74159 12.9708 0.833252 10.5 0.833252C6.91668 0.833252 3.81668 2.88742 2.30835 5.88325L5.37085 8.25825C6.09168 6.09159 8.11252 4.47909 10.5 4.47909Z" fill="#EA4335"/>
</svg>
